<?xml version="1.0" encoding="UTF-8"?>
<svg id="Layer_2" data-name="Layer 2" xmlns="http://www.w3.org/2000/svg" viewBox="0 0 367.6 638.08">
  <defs>
    <style>
      .cls-1 {
        fill: none;
      }
    </style>
  </defs>
  <g id="Layer_1-2" data-name="Layer 1">
    <g>
      <path class="cls-1" d="M321.66,368.09l-2.64.38-90.99,53v45.58l72.85-42.08c16.63-14.11,20.98-35.93,20.78-56.88Z"/>
      <path class="cls-1" d="M117.63,280.26c19.79,11.43,43.37,27.87,63.56,37.08,1.13.52,2.11,1.47,3.51.91l80.15-46.56c16.38-65.61-44.05-118.7-107.91-99.37-41.17,12.46-66.08,58.6-54.41,100.06,5.01,2.57,10.23,5.06,15.11,7.87Z"/>
      <path class="cls-1" d="M307.18,471.2l-78.09,44.68c-.04.09-.08.17-.11.26h-1v17.19c-.15,9.44.21,18.92.06,28.36l92.83-53.32c1.35-1.87,1.03-16.66.69-19.93-.71-6.85-5.62-20.1-14.38-17.24Z"/>
      <path d="M183.38,375.6l133.06-75.68c3.1-2.64,6.19-21.25,6.83-26.15,12.2-92.89-58.89-178.1-155.95-155.28-6.19,1.45-11.93,4.58-18.2,4.78C175.05,79.72,205.12,38.84,237.57,0h-71.96c-20.82,29.42-42.66,58.1-61.92,88.62-38.79,61.47-78.71,136.57-53.01,210.93l132.71,76.04ZM156.94,172.33c63.86-19.33,124.29,33.75,107.91,99.37l-80.15,46.56c-1.4.55-2.38-.4-3.51-.91-20.19-9.21-43.76-25.66-63.56-37.08-4.88-2.82-10.1-5.3-15.11-7.87-11.67-41.45,13.24-87.59,54.41-100.06Z"/>
      <path d="M340.74,428.84c3.97-6.69,9.43-12.42,13.37-19.15,8.22-14.05,11.7-29.43,13.05-45.32v-72.41l-183.77,105.37L1.29,291.71c-.27-.09-1.25,1.92-1.29,2.15v237l45.95,26.48v-92.89l103.18,59.03v-49.05l-103.18-60.77v-45.58l137.01,79.61v3.2s-.02.07-.02.1v187.08l184.24-106.79.42-13.96v-47.28c-1.73-17.02-9.76-35.12-26.86-41.21ZM228.03,421.48l90.99-53,2.64-.38c.2,20.96-4.15,42.77-20.78,56.88l-72.85,42.08v-45.58ZM320.87,508.36l-92.83,53.32c.16-9.44-.21-18.91-.06-28.36v-17.19h1c.04-.09.07-.17.11-.26l78.09-44.68c8.76-2.86,13.67,10.38,14.38,17.24.34,3.26.66,18.06-.69,19.93Z"/>
    </g>
  </g>
</svg>